<svg xmlns="http://www.w3.org/2000/svg" id="Chat-Bubble-Typing-Oval--Streamline-Core" width="14" height="14" fill="none" viewBox="0 0 14 14"><desc>Chat Bubble Typing Oval Streamline Icon: https://streamlinehq.com</desc><g id="chat-bubble-typing-oval--messages-message-bubble-typing-chat" stroke="#000" stroke-linecap="round" stroke-linejoin="round" stroke-width="1"><g id="Group 4482"><path id="Vector" d="M7.002 7.25a.25.25 0 0 1 0-.5"/><path id="Vector_2" d="M7.002 7.25a.25.25 0 0 0 0-.5"/></g><g id="Group 4493"><path id="Vector_3" d="M4.252 7.25a.25.25 0 0 1 0-.5"/><path id="Vector_4" d="M4.252 7.25a.25.25 0 0 0 0-.5"/></g><g id="Group 4494"><path id="Vector_5" d="M9.752 7.25a.25.25 0 0 1 0-.5"/><path id="Vector_6" d="M9.752 7.25a.25.25 0 1 0 0-.5"/></g><path id="Vector_7" d="M6.998.56a6.44 6.44 0 0 0-5.36 10.006L.558 13.44l3.617-.654A6.44 6.44 0 1 0 6.999.56Z"/></g></svg>