<svg xmlns="http://www.w3.org/2000/svg" id="Curly-Brackets--Streamline-Core" width="14" height="14" fill="none" viewBox="0 0 14 14"><desc>Curly Brackets Streamline Icon: https://streamlinehq.com</desc><g id="curly-brackets" stroke="#000" stroke-linecap="round" stroke-linejoin="round" stroke-width="1"><path id="vector 2099" d="M5.977 1.125H5.59a1 1 0 0 0-1 1v2.77a2 2 0 0 1-.92 1.684l-.804.515.803.515a2 2 0 0 1 .92 1.684v2.77a1 1 0 0 0 1 1h.386"/><path id="vector 2100" d="M8.366 1.125h.386a1 1 0 0 1 1 1v2.77a2 2 0 0 0 .92 1.684l.804.515-.804.515a2 2 0 0 0-.92 1.684v2.77a1 1 0 0 1-1 1h-.386"/></g></svg>