<svg xmlns="http://www.w3.org/2000/svg" id="Earth-1--Streamline-Core" width="14" height="14" fill="none" viewBox="0 0 14 14"><desc>Earth 1 Streamline Icon: https://streamlinehq.com</desc><g id="earth-1--planet-earth-globe-world" stroke="#000" stroke-linecap="round" stroke-linejoin="round" stroke-width="1"><path id="Vector" d="M7 13.5A6.5 6.5 0 1 0 7.000125793777913.5 6.5 6.5 0 0 0 7 13.5"/><path id="Vector_2" d="M1 9.5h1.75A1.75 1.75 0 0 0 4.5 7.75v-1.5A1.75 1.75 0 0 1 6.25 4.5 1.75 1.75 0 0 0 8 2.75V.57"/><path id="Vector_3" d="M13.5 6.9a3.56 3.56 0 0 0-1.62-.4H9.75a1.75 1.75 0 1 0 0 3.5A1.25 1.25 0 0 1 11 11.25v.87"/></g></svg>