<svg xmlns="http://www.w3.org/2000/svg" id="Ai-Prompt-Spark--Streamline-Core" width="14" height="14" fill="none" viewBox="0 0 14 14"><desc>Ai Prompt Spark Streamline Icon: https://streamlinehq.com</desc><g id="ai-prompt-spark--app-code-apps-window-website-web-artificial-intelligence-ai" stroke="#000" stroke-linecap="round" stroke-linejoin="round" stroke-width="1"><path id="Vector" d="M5.02 3.485h-3.5a1 1 0 0 0-1 1v8a1 1 0 0 0 1 1h9a1 1 0 0 0 1-1v-4"/><path id="Vector_2" d="M.52 5.985h6.5"/><path id="Vector_3" d="m3.02 10.985 1.5-1.5-1.5-1.5"/><path id="Vector_4" d="M6.02 10.985h1.5"/><path id="Vector 2136" d="M7.396 3.949c-.35-.061-.35-.565 0-.626A3.18 3.18 0 0 0 9.955.873l.02-.097c.077-.347.57-.35.65-.003l.025.113a3.19 3.19 0 0 0 2.565 2.435c.353.061.353.568 0 .63a3.19 3.19 0 0 0-2.565 2.435l-.026.112c-.079.346-.572.344-.648-.003L9.955 6.4a3.18 3.18 0 0 0-2.559-2.45"/></g></svg>