<svg xmlns="http://www.w3.org/2000/svg" id="Shopping-Cart-2--Streamline-Core" width="14" height="14" fill="none" viewBox="0 0 14 14"><desc>Shopping Cart 2 Streamline Icon: https://streamlinehq.com</desc><g id="shopping-cart-2--shopping-cart-checkout" stroke="#000" stroke-linecap="round" stroke-linejoin="round" stroke-width="1"><path id="Vector" d="M12.182 7.5h-8.18l-1-5h10a.5.5 0 0 1 .49.59l-.82 4a.49.49 0 0 1-.49.41Z"/><path id="Vector_2" d="M3.002 2.5 2.582.9a.5.5 0 0 0-.49-.4H.502"/><path id="Vector_3" d="m4.002 7.5.42 2.1a.5.5 0 0 0 .49.4h6.09"/><path id="Vector_4" d="M10.502 13.5c-.276 0-.5-.224-.5-.5s.224-.5.5-.5a.5.5 0 1 1 0 1"/><path id="Vector_5" d="M5.502 13.5c-.276 0-.5-.224-.5-.5s.224-.5.5-.5a.5.5 0 0 1 0 1"/></g></svg>